<svg width="41" height="41" viewBox="0 0 41 41" fill="none" xmlns="http://www.w3.org/2000/svg">
<rect width="41" height="41" rx="11.6902" fill="#F7F2FD"/>
<path fill-rule="evenodd" clip-rule="evenodd" d="M20.5427 11.0215H20.451C19.6584 11.0215 18.998 11.0215 18.4742 11.092C17.9205 11.1661 17.4206 11.3301 17.0194 11.7313C16.6173 12.1333 16.4533 12.6333 16.3793 13.1861C16.329 13.5626 16.314 14.4611 16.3105 15.2317C14.5276 15.2908 13.4564 15.4989 12.7131 16.243C11.6797 17.2755 11.6797 18.9385 11.6797 22.2634C11.6797 25.5884 11.6797 27.2513 12.7131 28.2838C13.7464 29.3163 15.4085 29.3172 18.7335 29.3172H22.2603C25.5853 29.3172 27.2482 29.3172 28.2807 28.2838C29.3132 27.2504 29.3141 25.5884 29.3141 22.2634C29.3141 18.9385 29.3141 17.2755 28.2807 16.243C27.5374 15.4989 26.4661 15.2908 24.6833 15.2326C24.6798 14.4611 24.6657 13.5626 24.6145 13.187C24.5405 12.6333 24.3765 12.1333 23.9744 11.7322C23.5732 11.3301 23.0733 11.1661 22.5196 11.092C21.9958 11.0215 21.3345 11.0215 20.5427 11.0215ZM23.3607 15.2114C23.3563 14.4646 23.344 13.6614 23.3043 13.3625C23.2487 12.956 23.1544 12.7814 23.0398 12.6668C22.9251 12.5522 22.7506 12.4578 22.3432 12.4023C21.9182 12.3458 21.3469 12.3441 20.4969 12.3441C19.6469 12.3441 19.0756 12.3458 18.6497 12.4031C18.2432 12.4578 18.0686 12.5522 17.954 12.6677C17.8394 12.7832 17.745 12.956 17.6895 13.3625C17.6498 13.6622 17.6366 14.4646 17.6331 15.2114C17.9787 15.2097 18.3455 15.2091 18.7335 15.2097H22.2603C22.6495 15.2097 23.0163 15.2102 23.3607 15.2114ZM20.4969 18.0752C20.6723 18.0752 20.8405 18.1449 20.9645 18.2689C21.0885 18.393 21.1582 18.5612 21.1582 18.7365V18.7454C22.1184 18.9869 22.9216 19.7443 22.9216 20.7936C22.9216 20.969 22.852 21.1372 22.7279 21.2612C22.6039 21.3852 22.4357 21.4549 22.2603 21.4549C22.0849 21.4549 21.9167 21.3852 21.7927 21.2612C21.6687 21.1372 21.599 20.969 21.599 20.7936C21.599 20.455 21.2234 19.9859 20.4969 19.9859C19.7704 19.9859 19.3947 20.455 19.3947 20.7936C19.3947 21.1322 19.7704 21.6021 20.4969 21.6021C21.7181 21.6021 22.9216 22.4486 22.9216 23.7332C22.9216 24.7825 22.1184 25.539 21.1582 25.7815V25.7903C21.1582 25.9657 21.0885 26.1339 20.9645 26.2579C20.8405 26.3819 20.6723 26.4516 20.4969 26.4516C20.3215 26.4516 20.1533 26.3819 20.0293 26.2579C19.9053 26.1339 19.8356 25.9657 19.8356 25.7903V25.7815C18.8754 25.5399 18.0722 24.7825 18.0722 23.7332C18.0722 23.5579 18.1418 23.3897 18.2658 23.2656C18.3899 23.1416 18.5581 23.072 18.7335 23.072C18.9088 23.072 19.077 23.1416 19.2011 23.2656C19.3251 23.3897 19.3947 23.5579 19.3947 23.7332C19.3947 24.0718 19.7704 24.5409 20.4969 24.5409C21.2234 24.5409 21.599 24.0718 21.599 23.7332C21.599 23.3947 21.2234 22.9247 20.4969 22.9247C19.2757 22.9247 18.0722 22.0783 18.0722 20.7936C18.0722 19.7443 18.8754 18.9869 19.8356 18.7454V18.7365C19.8356 18.5612 19.9053 18.393 20.0293 18.2689C20.1533 18.1449 20.3215 18.0752 20.4969 18.0752Z" fill="#A805FF"/>
</svg>
